<svg width="70" height="70" viewBox="0 0 70 70" fill="none" xmlns="http://www.w3.org/2000/svg">
<path d="M13.125 19.6875V21.875C13.125 24.1916 14.3336 26.2259 16.1514 27.3941C15.6155 28.0427 14.8291 28.4375 13.9606 28.4375H13.8009C11.0163 28.4375 8.75 30.7027 8.75 33.4884V39.375C8.75 39.9798 9.24 40.4688 9.84375 40.4688H29.5312C30.135 40.4688 30.625 39.9798 30.625 39.375V36.0938H39.375V39.375C39.375 39.9798 39.865 40.4688 40.4688 40.4688H60.1562C60.76 40.4688 61.25 39.9798 61.25 39.375V33.4884C61.25 30.7027 58.9837 28.4375 56.1991 28.4375H56.0394C55.1709 28.4375 54.3856 28.0427 53.8497 27.3941C55.6664 26.2259 56.875 24.1916 56.875 21.875V19.6875C56.875 16.0683 53.9317 13.125 50.3125 13.125C46.6933 13.125 43.75 16.0683 43.75 19.6875V21.875C43.75 24.1916 44.9586 26.2259 46.7764 27.3941C46.4483 27.7911 46.025 28.0831 45.5437 28.2538C44.7781 26.4359 42.9789 25.1562 40.8866 25.1562H40.7269C39.8584 25.1562 39.0731 24.7614 38.5372 24.1128C40.3539 22.9447 41.5625 20.9103 41.5625 18.5938V16.4062C41.5625 12.787 38.6192 9.84375 35 9.84375C31.3808 9.84375 28.4375 12.787 28.4375 16.4062V18.5938C28.4375 20.9103 29.6461 22.9447 31.4639 24.1128C30.928 24.7614 30.1416 25.1562 29.2731 25.1562H29.1134C27.02 25.1562 25.2219 26.4359 24.4563 28.2548C23.975 28.0842 23.5517 27.7922 23.2236 27.3952C25.0414 26.2259 26.25 24.1916 26.25 21.875V19.6875C26.25 16.0683 23.3067 13.125 19.6875 13.125C16.0683 13.125 13.125 16.0683 13.125 19.6875ZM28.4375 38.2812H10.9375V33.4884C10.9375 31.9102 12.2216 30.625 13.8009 30.625H13.9606C14.2417 30.625 14.5163 30.5955 14.7864 30.5517L15.1802 30.9455C16.3833 32.1497 17.9845 32.8125 19.6875 32.8125C21.3303 32.8125 22.8747 32.1902 24.0625 31.0658V35C24.0625 35.6048 24.5525 36.0938 25.1562 36.0938H28.4375V38.2812ZM56.1991 30.625C57.7784 30.625 59.0625 31.9102 59.0625 33.4884V38.2812H41.5625V36.0938H44.8438C45.4475 36.0938 45.9375 35.6048 45.9375 35V31.0658C47.1253 32.1902 48.6697 32.8125 50.3125 32.8125C52.0155 32.8125 53.6167 32.1497 54.8198 30.9455L55.2136 30.5517C55.4837 30.5955 55.7583 30.625 56.0394 30.625H56.1991ZM45.9375 19.6875C45.9375 17.2747 47.8997 15.3125 50.3125 15.3125C52.7253 15.3125 54.6875 17.2747 54.6875 19.6875V21.875C54.6875 24.2878 52.7253 26.25 50.3125 26.25C47.8997 26.25 45.9375 24.2878 45.9375 21.875V19.6875ZM50.3125 28.4375C50.8167 28.4375 51.3056 28.3752 51.7781 28.2669C52.1106 28.7952 52.5284 29.2458 53.0119 29.61C51.4883 30.8864 49.1356 30.8864 47.6131 29.61C48.0966 29.2458 48.5155 28.7952 48.8469 28.2669C49.3194 28.3752 49.8083 28.4375 50.3125 28.4375ZM30.625 16.4062C30.625 13.9934 32.5872 12.0312 35 12.0312C37.4128 12.0312 39.375 13.9934 39.375 16.4062V18.5938C39.375 21.0066 37.4128 22.9688 35 22.9688C32.5872 22.9688 30.625 21.0066 30.625 18.5938V16.4062ZM35 25.1562C35.5042 25.1562 35.9931 25.0939 36.4656 24.9856C36.7981 25.5139 37.2159 25.9645 37.6994 26.3288C36.1758 27.6052 33.8231 27.6052 32.3006 26.3288C32.7841 25.9645 33.203 25.5139 33.5344 24.9856C34.0069 25.0939 34.4958 25.1562 35 25.1562ZM26.25 30.2072C26.25 28.6289 27.5341 27.3438 29.1134 27.3438H29.2731C29.5542 27.3438 29.8287 27.3142 30.0989 27.2705L30.4927 27.6642C31.6958 28.8684 33.297 29.5312 35 29.5312C36.703 29.5312 38.3042 28.8684 39.5073 27.6642L39.9011 27.2705C40.1712 27.3142 40.4458 27.3438 40.7269 27.3438H40.8866C42.4659 27.3438 43.75 28.6289 43.75 30.2072V33.9062H26.25V30.2072ZM22.3869 29.6089C20.8633 30.8853 18.5106 30.8853 16.9881 29.6089C17.4716 29.2447 17.8905 28.7941 18.2219 28.2658C18.6944 28.3752 19.1833 28.4375 19.6875 28.4375C20.1917 28.4375 20.6806 28.3752 21.1531 28.2669C21.4845 28.7952 21.9034 29.2458 22.3869 29.6089ZM24.0625 19.6875V21.875C24.0625 24.2878 22.1003 26.25 19.6875 26.25C17.2747 26.25 15.3125 24.2878 15.3125 21.875V19.6875C15.3125 17.2747 17.2747 15.3125 19.6875 15.3125C22.1003 15.3125 24.0625 17.2747 24.0625 19.6875Z" fill="#EC7161"/>
<path d="M62.0091 47.3802L39.5992 53.492C39.4439 53.2547 39.2634 53.0283 39.0545 52.8194L31.3983 45.1631C31.1938 44.9586 30.9148 44.8438 30.625 44.8438H18.5938V43.75C18.5938 43.1452 18.1037 42.6562 17.5 42.6562H10.9375H2.1875C1.58375 42.6562 1.09375 43.1452 1.09375 43.75V67.8125C1.09375 68.4173 1.58375 68.9062 2.1875 68.9062H10.9375C11.5412 68.9062 12.0312 68.4173 12.0312 67.8125V66.7188H17.5C18.1037 66.7188 18.5938 66.2298 18.5938 65.625V64.5312H26.0728L32.4669 66.6619C32.5795 66.6991 32.6955 66.7188 32.8125 66.7188C32.9328 66.7188 33.0531 66.698 33.168 66.6586L68.168 54.6273C68.6098 54.4764 68.9062 54.0608 68.9062 53.5938V52.5C68.9062 51.4587 68.612 50.4448 68.0542 49.5666C66.8303 47.6438 64.3431 46.7447 62.0091 47.3802ZM9.84375 66.7188H3.28125V44.8438H9.84375V66.7188ZM16.4062 64.5312H12.0312V44.8438H16.4062V64.5312ZM66.7188 52.8128L32.807 64.47L26.5956 62.3995C26.4841 62.3634 26.367 62.3438 26.25 62.3438H18.5938V47.0312H30.1722L37.508 54.367C38.2878 55.1469 38.2878 56.4156 37.508 57.1955C36.7281 57.9753 35.4594 57.9753 34.6795 57.1955L29.2108 51.7267L27.6642 53.2733L33.133 58.742C33.9489 59.558 35.0219 59.9659 36.0938 59.9659C37.1656 59.9659 38.2386 59.558 39.0545 58.742C39.9219 57.8747 40.3145 56.7186 40.2598 55.58L62.5844 49.4911C64.0041 49.1028 65.4948 49.6169 66.208 50.7412C66.5427 51.2662 66.7188 51.8755 66.7188 52.5V52.8128Z" fill="#EC7161"/>
<path d="M45.0205 2.59857C44.3117 2.38092 43.5942 2.18404 42.8669 2.01123L42.3594 4.13857C43.0408 4.30045 43.7123 4.4842 44.3752 4.68982L45.0205 2.59857Z" fill="#EC7161"/>
<path d="M66.7195 34.9999C66.7195 35.492 66.7085 35.9831 66.6855 36.4699L68.8709 36.5705C68.8949 36.0499 68.907 35.5259 68.907 34.9999C68.907 34.7789 68.9048 34.558 68.9004 34.3381L66.7129 34.3808C66.7173 34.5875 66.7195 34.7942 66.7195 34.9999Z" fill="#EC7161"/>
<path d="M40.6808 1.56715C39.96 1.44574 39.2162 1.34512 38.4681 1.26855L38.2461 3.44512C38.9428 3.51512 39.633 3.60809 40.3155 3.72512L40.6808 1.56715Z" fill="#EC7161"/>
<path d="M65.982 28.1662L68.118 27.6959C67.9584 26.9697 67.7735 26.2423 67.5679 25.5325L65.4668 26.1417C65.6593 26.8089 65.831 27.4837 65.982 28.1662Z" fill="#EC7161"/>
<path d="M49.1962 4.19876C48.518 3.88595 47.8246 3.59392 47.1355 3.33032L46.3535 5.37235C47.0065 5.62282 47.6485 5.89407 48.2796 6.18501L49.1962 4.19876Z" fill="#EC7161"/>
<path d="M66.6044 32.294L68.7842 32.108C68.7208 31.3621 68.6333 30.6238 68.5228 29.8921L66.3594 30.2191C66.4644 30.9038 66.5453 31.5962 66.6044 32.294Z" fill="#EC7161"/>
<path d="M60.9648 16.7801L62.7542 15.5223C62.3266 14.9131 61.8781 14.3181 61.4122 13.7395L59.707 15.1111C60.1445 15.6536 60.5645 16.2092 60.9648 16.7801Z" fill="#EC7161"/>
<path d="M64.8176 24.1576L66.8738 23.4095C66.619 22.7095 66.339 22.0138 66.0426 21.3401L64.041 22.2227C64.3199 22.8571 64.5791 23.5024 64.8176 24.1576Z" fill="#EC7161"/>
<path d="M59.9554 12.0476C59.4577 11.5062 58.9305 10.9702 58.3902 10.4551L56.8809 12.0377C57.384 12.5179 57.8729 13.0145 58.3443 13.5274L59.9554 12.0476Z" fill="#EC7161"/>
<path d="M53.1182 6.33601C52.4948 5.94116 51.8462 5.55944 51.191 5.20288L50.1465 7.12569C50.759 7.45929 51.3595 7.81147 51.9468 8.18444L53.1182 6.33601Z" fill="#EC7161"/>
<path d="M65.2168 44.6743L67.3004 45.3404C67.5279 44.6294 67.7324 43.9054 67.9096 43.19L65.7866 42.665C65.6182 43.3443 65.4279 44.0136 65.2168 44.6743Z" fill="#EC7161"/>
<path d="M68.6967 38.7964L66.5223 38.5547C66.4447 39.2503 66.3441 39.9394 66.2227 40.6208L68.3762 41.008C68.5064 40.2795 68.6136 39.5358 68.6967 38.7964Z" fill="#EC7161"/>
<path d="M56.7271 8.96762C56.1562 8.49184 55.5634 8.02809 54.9673 7.59277L53.6777 9.35918C54.241 9.77043 54.7901 10.2003 55.3238 10.6465L56.7271 8.96762Z" fill="#EC7161"/>
<path d="M63.1353 20.3436L65.0745 19.3308C64.7322 18.6757 64.3636 18.0227 63.9775 17.3894L62.1094 18.5258C62.4714 19.1186 62.8137 19.7257 63.1353 20.3436Z" fill="#EC7161"/>
<path d="M4.60078 25.9164L2.50406 25.2908C2.29188 26.005 2.10047 26.7312 1.9375 27.452L4.07031 27.9366C4.22562 27.2541 4.40281 26.5814 4.60078 25.9164Z" fill="#EC7161"/>
<path d="M6.0575 22.0041L4.06359 21.1072C3.76063 21.7787 3.47516 22.4755 3.21484 23.1755L5.26453 23.9378C5.50734 23.2826 5.77203 22.6373 6.0575 22.0041Z" fill="#EC7161"/>
<path d="M8.01969 18.3136L6.16141 17.1597C5.77094 17.7897 5.39578 18.4415 5.04688 19.0967L6.97734 20.1248C7.30547 19.509 7.65219 18.9053 8.01969 18.3136Z" fill="#EC7161"/>
<path d="M10.4489 14.9142L8.75578 13.5295C8.28437 14.1049 7.83156 14.6955 7.39844 15.3014L9.17687 16.5745C9.58375 16.008 10.0081 15.4534 10.4489 14.9142Z" fill="#EC7161"/>
<path d="M3.30531 36.2359C3.28891 35.8257 3.28125 35.4123 3.28125 35C3.28125 34.7134 3.28453 34.4301 3.29219 34.1468L1.10578 34.0867C1.09703 34.3885 1.09375 34.6948 1.09375 35.001C1.09375 35.4418 1.1025 35.8815 1.11891 36.319L3.30531 36.2359Z" fill="#EC7161"/>
<path d="M3.6743 29.9872L1.51305 29.646C1.39711 30.3788 1.30414 31.1237 1.23633 31.8597L3.41398 32.061C3.47852 31.3621 3.56602 30.6708 3.6743 29.9872Z" fill="#EC7161"/>
<path d="M1.27734 38.5468C1.355 39.2928 1.45672 40.0289 1.58141 40.7584L3.73828 40.3887C3.62125 39.7062 3.52609 39.0161 3.45391 38.3193L1.27734 38.5468Z" fill="#EC7161"/>
<path d="M16.5285 9.21046L15.251 7.4353C14.6473 7.86952 14.0566 8.32343 13.4824 8.79483L14.8726 10.4847C15.4096 10.0428 15.963 9.61733 16.5285 9.21046Z" fill="#EC7161"/>
<path d="M23.8675 5.29029L23.0997 3.2417C22.403 3.50311 21.7095 3.78967 21.0391 4.09264L21.9403 6.08545C22.5725 5.79998 23.2156 5.53529 23.8675 5.29029Z" fill="#EC7161"/>
<path d="M27.8628 4.08606L27.375 1.95435C26.6531 2.1195 25.9258 2.312 25.2148 2.52638L25.847 4.61981C26.5098 4.42075 27.188 4.24138 27.8628 4.08606Z" fill="#EC7161"/>
<path d="M31.9838 3.42338L31.7804 1.24463C31.0476 1.31244 30.3016 1.4076 29.5645 1.52791L29.9134 3.68807C30.597 3.5776 31.2871 3.48682 31.9838 3.42338Z" fill="#EC7161"/>
<path d="M20.0684 7.0075L19.0381 5.07812C18.3819 5.42812 17.7322 5.80328 17.1055 6.19484L18.2637 8.05094C18.8511 7.68344 19.4538 7.33562 20.0684 7.0075Z" fill="#EC7161"/>
<path d="M34.906 3.28117C35.3216 3.27898 35.746 3.28773 36.1627 3.30195L36.2382 1.11664C35.828 1.10133 35.4146 1.09367 35.0034 1.09367C34.6687 1.09258 34.3373 1.09695 34.0059 1.10679L34.0726 3.29429C34.3482 3.28554 34.6249 3.28117 34.906 3.28117Z" fill="#EC7161"/>
<path d="M13.3009 11.867L11.8068 10.269C11.272 10.7689 10.7415 11.3004 10.2285 11.8495L11.8276 13.3425C12.3055 12.8284 12.8021 12.3319 13.3009 11.867Z" fill="#EC7161"/>
</svg>
