<svg width="70" height="70" viewBox="0 0 70 70" fill="none" xmlns="http://www.w3.org/2000/svg">
<path fill-rule="evenodd" clip-rule="evenodd" d="M61.2 43.1011C60.3075 50.0622 56.5338 56.4517 50.8472 60.6288C50.4529 60.9178 49.8987 60.8376 49.6057 60.4391C49.3155 60.0443 49.3999 59.4878 49.7947 59.1968C55.0913 55.3049 58.6045 49.3562 59.4375 42.8743C59.5002 42.3878 59.9457 42.0454 60.4322 42.1064C60.9186 42.1684 61.2618 42.6138 61.2 43.1011ZM21.5007 60.4391C21.2099 60.8363 20.6506 60.9189 20.2575 60.6288C14.5717 56.4515 10.7988 50.0622 9.9055 43.1011C9.84278 42.6138 10.1869 42.1684 10.6734 42.1064C11.1599 42.0454 11.6069 42.3878 11.6689 42.8743C12.5004 49.3562 16.0151 55.3049 21.3102 59.1968C21.7065 59.488 21.7918 60.0443 21.5007 60.4391ZM47.3663 17.7566C47.6139 17.3329 48.1567 17.1889 48.5813 17.4366C51.123 18.9226 53.3794 20.8186 55.2883 23.0709C55.7801 23.6512 55.3601 24.5336 54.6113 24.5336C54.3587 24.5336 54.1087 24.4275 53.9319 24.22C52.154 22.1213 50.052 20.3563 47.6848 18.9724C47.26 18.7249 47.1185 18.1796 47.3663 17.7566ZM15.8173 23.0709C17.7253 20.8186 19.9817 18.9226 22.5243 17.4366C22.948 17.1889 23.4932 17.3329 23.74 17.7566C23.9877 18.1796 23.8446 18.7247 23.42 18.9724C21.0536 20.3563 18.9508 22.1213 17.1729 24.22C16.8551 24.5956 16.292 24.6388 15.92 24.3229C15.5455 24.0054 15.4998 23.4457 15.8173 23.0709ZM31.6693 7.309C32.8997 7.309 34.0712 7.83974 34.8842 8.76682C35.2386 9.17156 35.8665 9.17198 36.2214 8.76682C37.0344 7.83974 38.2059 7.309 39.4378 7.309C41.7954 7.309 43.7124 9.22672 43.7124 11.5845C43.7124 15.6267 39.478 20.5453 35.5532 22.455C31.6268 20.5453 27.3925 15.6265 27.3925 11.5845C27.3923 9.22672 29.3109 7.309 31.6693 7.309ZM35.1937 24.2482C35.4212 24.3491 35.6831 24.349 35.9109 24.2482C40.442 22.2484 45.4901 16.5561 45.4901 11.5845C45.4901 8.24658 42.7747 5.53198 39.4377 5.53198C38.0071 5.53198 36.6346 6.03696 35.5531 6.94234C34.4716 6.03696 33.0973 5.53198 31.6693 5.53198C28.3308 5.53198 25.6145 8.24658 25.6145 11.5845C25.6145 16.5561 30.6634 22.2484 35.1937 24.2482ZM42.4226 53.384C42.4507 53.384 42.4789 53.3992 42.4926 53.425L43.6465 55.506L43.616 55.6121L34.1405 60.8701L32.9086 58.6508L42.4226 53.384ZM41.1923 60.3137L39.9998 59.6519L37.3857 61.1033L39.9604 62.5314C40.5724 62.8708 41.3459 62.6496 41.6844 62.0377C42.0254 61.4259 41.8027 60.6522 41.1923 60.3137ZM31.1442 62.5314C30.5339 62.8708 29.7595 62.6496 29.4202 62.0377C29.0809 61.4257 29.3021 60.6522 29.914 60.3137L31.3542 59.5136L32.5861 61.7329L31.1442 62.5314ZM27.4888 55.6121L31.1049 57.6191L33.7215 56.1684L28.7208 53.3943C28.6838 53.3735 28.6332 53.3879 28.6123 53.4249L27.4584 55.5058C27.4381 55.5431 27.4518 55.5921 27.4888 55.6121ZM25.3507 48.7483H22.2373V46.8989H25.5791C25.8155 46.8989 26.0413 46.8057 26.2078 46.6392L29.5255 43.3199V46.4551L25.3507 48.7483ZM18.0052 47.8236C18.0052 48.3326 18.4202 48.7483 18.9307 48.7483H20.4594V46.8989H18.9307C18.4202 46.8989 18.0052 47.313 18.0052 47.8236ZM32.9663 40.3423C32.0496 40.3423 31.3034 41.0893 31.3034 42.006V52.7954L35.5531 55.1515L39.8019 52.7954V42.006C39.8019 41.0893 39.0566 40.3423 38.1399 40.3423H32.9663ZM35.5531 33.0893C37.0633 33.0893 38.2911 34.3171 38.2911 35.8273C38.2911 37.3366 37.0631 38.5644 35.5531 38.5644C34.043 38.5644 32.8144 37.3365 32.8144 35.8273C32.8144 34.3171 34.043 33.0893 35.5531 33.0893ZM45.5256 46.8989H48.869V48.7483H45.7547L41.5799 46.4551V43.3199L44.8977 46.6392C45.0648 46.8057 45.2908 46.8989 45.5256 46.8989ZM53.1003 47.8236C53.1003 47.313 52.6853 46.8989 52.1756 46.8989H50.6469V48.7483H52.1756C52.6853 48.7483 53.1003 48.3326 53.1003 47.8236ZM45.0979 50.4153C45.2297 50.4877 45.3777 50.5263 45.5257 50.5263H52.1757C53.6657 50.5263 54.8783 49.3129 54.8783 47.8237C54.8783 46.3329 53.6657 45.122 52.1757 45.122H45.894L41.3195 40.5458C41.285 40.5113 41.2472 40.4807 41.2078 40.4526C40.772 39.5962 39.9888 38.9449 39.0455 38.6868C39.6839 37.9068 40.0684 36.9113 40.0684 35.8274C40.0684 33.3371 38.0437 31.3116 35.5534 31.3116C33.0639 31.3116 31.0368 33.3371 31.0368 35.8274C31.0368 36.9113 31.422 37.9068 32.062 38.6868C31.1172 38.9449 30.3332 39.5962 29.8982 40.4526C29.8587 40.4807 29.8218 40.5113 29.7865 40.5458L25.2109 45.1219H18.9307C17.4399 45.1219 16.2273 46.3329 16.2273 47.8236C16.2273 49.3128 17.4399 50.5262 18.9307 50.5262H25.5791C25.7294 50.5262 25.8766 50.4875 26.0069 50.4151L29.5257 48.4829V51.8118C28.6403 51.3592 27.5451 51.6848 27.0587 52.562L25.904 54.6438C25.4078 55.5389 25.7319 56.6702 26.627 57.1664L29.2732 58.6362L29.052 58.7593C26.6965 60.0656 27.0778 63.6006 29.6921 64.3485C30.4688 64.5707 31.2948 64.4816 32.0072 64.0856L35.5532 62.1187L39.0986 64.0856C40.5542 64.8927 42.418 64.3825 43.2405 62.8995C44.0543 61.4305 43.5227 59.573 42.0544 58.7591L41.8325 58.6361L44.4788 57.1662C45.3744 56.6694 45.6992 55.5394 45.2024 54.6437L44.0469 52.5619C43.5604 51.6847 42.4645 51.359 41.5799 51.8116V48.4827L45.0979 50.4153ZM64.4092 38.1052H52.3854C52.2905 38.1052 52.2101 38.0249 52.2101 37.9299V31.9442L57.5084 34.7361V34.9106C57.5084 35.4018 57.9065 35.7991 58.3977 35.7991C58.8881 35.7991 59.2863 35.402 59.2863 34.9106V34.7361L64.5853 31.9442V37.9299C64.5853 38.0249 64.504 38.1052 64.4092 38.1052ZM56.5466 27.6728C56.5466 27.6093 56.5997 27.5554 56.6633 27.5554H60.1322C60.1949 27.5554 60.248 27.6093 60.248 27.6728V28.518H56.5466V27.6728ZM59.2243 32.7604C58.9315 32.0114 57.8647 32.0088 57.571 32.7604L52.8936 30.2959H63.901L59.2243 32.7604ZM64.4092 28.518C65.4866 28.518 66.3632 29.3944 66.3632 30.4712V37.9299C66.3632 39.0067 65.4866 39.8822 64.4092 39.8822H52.3854C51.3087 39.8822 50.4323 39.0065 50.4323 37.9299V30.4712C50.4323 29.3944 51.3088 28.518 52.3854 28.518H54.7688V27.6728C54.7688 26.6275 55.6179 25.7784 56.6633 25.7784H60.1322C61.1759 25.7784 62.0258 26.6275 62.0258 27.6728V28.518H64.4092ZM5.41388 37.4153V36.7262H20.5615V37.4153C20.5615 37.7964 20.2511 38.1052 19.8715 38.1052H6.10296C5.72258 38.1052 5.41388 37.7965 5.41388 37.4153ZM7.88236 28.0195C7.88236 27.9535 7.94102 27.8949 8.00696 27.8949H17.9681C18.034 27.8949 18.0927 27.9535 18.0927 28.0195V34.9484H7.88236V28.0195ZM22.3386 37.4153C22.3386 38.775 21.2314 39.8822 19.8717 39.8822H6.10296C4.74328 39.8822 3.63672 38.775 3.63672 37.4153V35.8368C3.63672 35.3455 4.0339 34.9482 4.5253 34.9482H6.1045V28.0195C6.1045 26.9702 6.95766 26.117 8.00696 26.117H17.9681C19.0167 26.117 19.8706 26.9702 19.8706 28.0195V34.9484H21.4498C21.941 34.9484 22.3383 35.3455 22.3383 35.8369V37.4153H22.3386Z" fill="#EC7161"/>
</svg>
