<svg width="72" height="71" viewBox="0 0 72 71" fill="none" xmlns="http://www.w3.org/2000/svg">
<g clip-path="url(#clip0_2949_673)">
<path d="M12.6928 25.7842C12.1081 25.5975 11.7919 24.9745 11.9659 24.3983C12.1554 23.822 12.7878 23.5105 13.3725 23.6979C15.2225 24.2741 16.8342 25.3953 18.0201 26.8593C18.9527 28.0118 19.6329 29.3819 19.9491 30.8925C20.3598 30.8305 20.7711 30.7992 21.1823 30.7992C23.5692 30.7992 25.7505 31.7649 27.3161 33.3063C28.881 34.8478 29.8452 36.9814 29.8452 39.3485C29.8452 39.9555 29.3556 40.4384 28.7388 40.4384C28.1224 40.4384 27.6167 39.9555 27.6167 39.3485C27.6167 37.589 26.9054 36.0003 25.7355 34.8632C24.5657 33.7106 22.969 32.9949 21.1829 32.9949C20.0758 32.9949 19.0488 33.275 18.148 33.7425C17.2149 34.2408 16.4246 34.9571 15.8238 35.8141C15.4921 36.3282 14.7963 36.4524 14.2906 36.125C13.7687 35.7827 13.642 35.0972 13.9743 34.5989C14.7646 33.431 15.8394 32.4812 17.1043 31.811C17.3255 31.6863 17.5628 31.5776 17.7995 31.4842C17.5628 30.2696 17.0409 29.1484 16.2823 28.2299C15.3642 27.0922 14.1155 26.2358 12.6928 25.7842ZM24.28 56.5401C23.7743 56.8675 23.0785 56.7274 22.7467 56.2132C22.4305 55.699 22.5728 55.0299 23.0941 54.7025C23.8215 54.2356 24.6279 53.8774 25.4971 53.6434C26.3346 53.4099 27.2205 53.2698 28.1369 53.2698C30.5082 53.2698 32.6423 54.1103 34.2073 55.4502C35.8195 56.8356 36.7998 58.7511 36.7998 60.8848C36.7998 61.4918 36.3102 61.9747 35.6933 61.9747C35.077 61.9747 34.5707 61.4918 34.5707 60.8848C34.5707 59.4054 33.8755 58.0815 32.7529 57.1004C31.5831 56.1044 29.9547 55.4815 28.1369 55.4815C27.4255 55.4815 26.7464 55.5749 26.0979 55.7457C25.4343 55.9325 24.8336 56.2132 24.28 56.5401ZM10.1002 38.8651C10.701 38.803 11.2545 39.2392 11.3173 39.8462C11.3646 40.4532 10.9222 40.9833 10.3059 41.046C9.45225 41.124 8.63031 41.124 7.83949 41.0306C7.0331 40.9372 6.2584 40.7493 5.51592 40.4697C4.94684 40.267 4.64674 39.6287 4.86793 39.0678C5.073 38.5069 5.72099 38.2114 6.29063 38.4295C6.84415 38.6322 7.46047 38.7722 8.10846 38.8503C8.7409 38.9272 9.40501 38.9272 10.1002 38.8651ZM23.2841 5.16592C23.4425 4.58966 24.0433 4.2315 24.6279 4.37213C25.2287 4.51221 25.5921 5.10385 25.4499 5.69548C25.371 6.00696 25.3076 6.48983 25.3554 7.06608C25.3871 7.48633 25.4816 7.95381 25.6716 8.38944C25.9089 8.95031 25.6244 9.58864 25.0553 9.82211C24.5018 10.0402 23.8382 9.77542 23.617 9.21454C23.3325 8.52952 23.1902 7.85988 23.143 7.23693C23.0791 6.41182 23.1741 5.6801 23.2841 5.16592ZM26.6831 21.1434C26.0667 21.1434 25.5605 20.6452 25.5605 20.0376C25.5605 19.4306 26.0662 18.9323 26.6831 18.9323C27.9635 18.9323 29.1333 19.446 29.9714 20.287C30.8089 21.1127 31.3307 22.2652 31.3307 23.5259C31.3307 24.7872 30.8089 25.9397 29.9714 26.7654C29.1333 27.6058 27.9635 28.12 26.6831 28.12C26.0667 28.12 25.5605 27.6218 25.5605 27.0142C25.5605 26.4066 26.0662 25.9243 26.6831 25.9243C27.3472 25.9243 27.9479 25.6442 28.3903 25.2234C28.8332 24.7877 29.1022 24.1956 29.1022 23.5259C29.1022 22.8722 28.8332 22.2646 28.3903 21.8444C27.9479 21.4082 27.3472 21.1434 26.6831 21.1434ZM9.34221 52.2426C9.04156 52.7721 8.36188 52.9589 7.82448 52.6634C7.30319 52.3673 7.11313 51.6971 7.41323 51.1675C7.87172 50.3891 8.4408 49.6574 9.0888 49.0344C9.75291 48.4109 10.4959 47.8819 11.3179 47.4617C11.8553 47.1969 12.535 47.3996 12.8201 47.9446C13.0885 48.4741 12.8834 49.1438 12.3299 49.4234C11.7136 49.7348 11.1445 50.1397 10.6382 50.6226C10.1319 51.1049 9.68955 51.6498 9.34221 52.2426ZM25.7822 47.5705C26.3041 47.2749 26.9843 47.4458 27.2999 47.9753C27.6 48.4895 27.4261 49.1745 26.8887 49.4701C25.5293 50.249 23.9799 50.4045 22.5733 50.0309C21.1823 49.6574 19.9175 48.7697 19.1272 47.4309C18.3369 46.0916 18.1785 44.5656 18.5581 43.1801C18.9377 41.7942 19.8547 40.5477 21.214 39.7847C21.7358 39.4732 22.4155 39.6594 22.7312 40.189C23.0318 40.7032 22.8418 41.3728 22.3205 41.6848C21.4985 42.1523 20.945 42.8994 20.7083 43.7399C20.4871 44.581 20.5816 45.5154 21.0556 46.3251C21.5302 47.1348 22.3049 47.6798 23.1585 47.9138C24.0116 48.1308 24.9447 48.0374 25.7822 47.5705ZM17.53 16.067C17.1504 15.5841 17.2293 14.8991 17.7195 14.525C18.1941 14.1514 18.9054 14.2289 19.2845 14.7118C19.3795 14.8365 19.4901 14.9612 19.5851 15.0546C20.0125 15.46 20.5182 15.7714 21.1029 15.8181C21.7036 15.8802 22.4305 15.6621 23.268 15.0079C23.4892 14.8211 23.7265 14.6343 23.9477 14.4162L23.9633 14.3849C25.0542 13.373 26.2557 12.8122 27.425 12.5941C28.816 12.3606 30.1442 12.5941 31.2029 13.139C31.7564 13.4192 31.9615 14.0888 31.677 14.6184C31.3924 15.1633 30.7283 15.366 30.1754 15.0853C29.5274 14.7425 28.6893 14.603 27.8201 14.7585C27.0454 14.8985 26.2396 15.2726 25.4966 15.9731C25.212 16.2691 24.9275 16.518 24.6429 16.7207C23.2991 17.7639 22.0343 18.1067 20.8961 17.9974C19.7418 17.904 18.7621 17.3437 18.019 16.6119C17.8468 16.4252 17.6728 16.2538 17.53 16.067Z" fill="#EC7161"/>
<path d="M36.5168 13.3883C35.9005 13.3883 35.4103 12.8901 35.4103 12.2825C35.4103 11.6749 35.9005 11.1926 36.5168 11.1926H41.5279C41.718 10.6477 42.0181 10.1807 42.4138 9.79124C43.0618 9.15236 43.9465 8.74805 44.943 8.74805C45.9389 8.74805 46.8242 9.15291 47.4877 9.79124C48.1363 10.4296 48.5314 11.3173 48.5314 12.283C48.5314 13.2642 48.1363 14.1513 47.4877 14.7897C46.8242 15.4286 45.9389 15.818 44.943 15.818C43.9465 15.818 43.0618 15.4291 42.4138 14.7897C42.0181 14.4007 41.718 13.9179 41.5279 13.3883H36.5168ZM52.4833 47.4923C53.0996 47.4923 53.6059 46.9941 53.6059 46.3865C53.6059 45.7789 53.1002 45.2966 52.4833 45.2966C51.8664 45.2966 51.3768 45.7795 51.3768 46.3865C51.3768 46.9935 51.8664 47.4923 52.4833 47.4923ZM52.4833 49.5007C53.3519 49.5007 54.1428 49.1585 54.728 48.5822C55.297 48.0213 55.6444 47.2429 55.6444 46.3865C55.6444 45.5301 55.297 44.7511 54.728 44.1908C54.1428 43.6299 53.3519 43.2877 52.4833 43.2877C51.6136 43.2877 50.8233 43.6299 50.2542 44.1908C49.6851 44.7517 49.3378 45.5301 49.3378 46.3865C49.3378 47.2429 49.6851 48.0219 50.2542 48.5822C50.8228 49.1585 51.613 49.5007 52.4833 49.5007ZM35.6949 43.9266C35.0785 43.9266 34.5723 43.4283 34.5723 42.8208C34.5723 42.2132 35.0785 41.7309 35.6949 41.7309H44.4839C44.674 41.7309 44.8318 41.7622 44.9897 41.8396L48.2463 43.1163C48.373 42.9608 48.5309 42.7894 48.6731 42.634C49.6535 41.6842 50.9967 41.0766 52.4828 41.0766C53.9683 41.0766 55.3282 41.6836 56.2918 42.634C57.2722 43.5992 57.8729 44.9225 57.8729 46.3865C57.8729 47.8505 57.2722 49.1898 56.2918 50.139C55.3282 51.1048 53.9677 51.6964 52.4828 51.6964C50.9961 51.6964 49.6529 51.1048 48.6731 50.139C47.7089 49.1892 47.1087 47.8505 47.1087 46.3865C47.1087 45.9503 47.156 45.5147 47.2666 45.0939L44.2789 43.926L35.6949 43.9266ZM35.6949 57.6765C35.0785 57.6765 34.5723 57.1942 34.5723 56.5872C34.5723 55.9802 35.0785 55.4814 35.6949 55.4814H42.3499C42.5238 54.9518 42.8245 54.4689 43.2191 54.0794C43.8671 53.4411 44.7685 53.0516 45.7644 53.0516C46.7442 53.0516 47.6456 53.4411 48.2936 54.0794C48.9416 54.7178 49.3528 55.6055 49.3528 56.5866C49.3528 57.5672 48.9416 58.4395 48.2936 59.0779C47.6456 59.7162 46.7442 60.1211 45.7644 60.1211C44.7685 60.1211 43.8671 59.7162 43.2191 59.0779C42.8239 58.6884 42.5233 58.2209 42.3499 57.676L35.6949 57.6765ZM46.713 55.6368C46.4763 55.4034 46.1278 55.2473 45.7649 55.2473C45.3854 55.2473 45.0369 55.4034 44.8007 55.6368C44.5479 55.8857 44.405 56.2131 44.405 56.5866C44.405 56.9602 44.5479 57.287 44.8007 57.5364C45.0375 57.7705 45.3859 57.9259 45.7649 57.9259C46.1278 57.9259 46.4763 57.7705 46.713 57.5364C46.9664 57.2876 47.1087 56.9602 47.1087 56.5866C47.1087 56.2131 46.9664 55.8857 46.713 55.6368ZM52.4833 20.6291C53.0996 20.6291 53.6059 21.112 53.6059 21.7196C53.6059 22.3271 53.1002 22.8254 52.4833 22.8254C51.8664 22.8254 51.3768 22.3271 51.3768 21.7196C51.3768 21.112 51.8664 20.6291 52.4833 20.6291ZM58.3475 32.8695C58.9638 32.8695 59.4701 33.3518 59.4701 33.9594C59.4701 34.567 58.9644 35.0652 58.3475 35.0652C57.7306 35.0652 57.241 34.567 57.241 33.9594C57.241 33.3518 57.7312 32.8695 58.3475 32.8695ZM35.6949 35.0652C35.0785 35.0652 34.5723 34.567 34.5723 33.9594C34.5723 33.3518 35.0785 32.8695 35.6949 32.8695H53.0841C53.3047 31.8411 53.8265 30.9226 54.5379 30.2063C55.5182 29.2565 56.862 28.6495 58.3475 28.6495C59.8491 28.6495 61.1929 29.2565 62.1571 30.2063C63.1375 31.172 63.7382 32.4954 63.7382 33.9594C63.7382 35.4234 63.1375 36.7627 62.1571 37.7125C61.1929 38.6782 59.8491 39.2698 58.3475 39.2698C56.8615 39.2698 55.5177 38.6782 54.5379 37.7125C53.8265 36.9961 53.3047 36.093 53.0841 35.0652H35.6949ZM56.119 36.171C56.6881 36.7319 57.4783 37.0747 58.3481 37.0747C59.2334 37.0747 60.0242 36.7319 60.5933 36.171C61.1618 35.5953 61.5091 34.8164 61.5091 33.9599C61.5091 33.1035 61.1618 32.3251 60.5933 31.7642C60.0242 31.2034 59.2334 30.8611 58.3481 30.8611C57.4789 30.8611 56.6886 31.2039 56.119 31.7642C54.8858 32.9788 54.8858 34.9564 56.119 36.171ZM35.6949 26.3911C35.0785 26.3911 34.5723 25.8929 34.5723 25.2853C34.5723 24.6783 35.0785 24.1954 35.6949 24.1954H44.2789L47.2666 23.0275C47.156 22.6068 47.1087 22.1711 47.1087 21.7196C47.1087 20.2556 47.7089 18.9322 48.6731 17.9665C49.6535 17.0167 50.9967 16.4251 52.4828 16.4251C53.9683 16.4251 55.3282 17.0167 56.2918 17.9665C57.2722 18.9322 57.8729 20.2556 57.8729 21.7196C57.8729 23.1836 57.2722 24.5228 56.2918 25.4727C55.3282 26.4378 53.9677 27.03 52.4828 27.03C50.9961 27.03 49.6529 26.4378 48.6731 25.4727C48.5309 25.3172 48.373 25.1612 48.2463 24.9898L44.9897 26.267C44.8318 26.345 44.674 26.3917 44.4839 26.3917L35.6949 26.3911ZM54.728 19.5239C54.1428 18.963 53.3519 18.6208 52.4833 18.6208C51.6136 18.6208 50.8233 18.9635 50.2542 19.5239C49.6851 20.0847 49.3378 20.8632 49.3378 21.7196C49.3378 22.576 49.6851 23.355 50.2542 23.9307C50.8228 24.4915 51.613 24.8338 52.4833 24.8338C53.3519 24.8338 54.1428 24.491 54.728 23.9307C55.297 23.3544 55.6444 22.576 55.6444 21.7196C55.6444 20.8632 55.297 20.0847 54.728 19.5239ZM45.9072 11.3327C45.6538 11.0992 45.322 10.9432 44.943 10.9432C44.564 10.9432 44.2316 11.0992 43.9793 11.3327C43.7415 11.5815 43.5836 11.9084 43.5836 12.2825C43.5836 12.656 43.7415 12.9829 43.9793 13.2323C44.2316 13.4658 44.564 13.6212 44.943 13.6212C45.322 13.6212 45.6538 13.4658 45.9072 13.2323C46.1439 12.9829 46.3018 12.656 46.3018 12.2825C46.3012 11.9089 46.1434 11.5815 45.9072 11.3327Z" fill="#EC7161"/>
<path d="M34.5722 5.55538V60.8067C34.5722 64.389 32.2642 67.6746 28.5335 68.0789C27.5215 68.1882 26.4784 68.0635 25.5142 67.7213C23.6485 67.0362 22.068 65.4789 21.5145 63.0338C21.3561 62.3328 20.5503 61.9746 19.9023 62.3169C18.1 63.1579 16.2666 63.4227 14.6066 63.2046C13.0889 63.0178 11.6978 62.3949 10.623 61.4604C9.54822 60.526 8.78963 59.2494 8.47341 57.7074C8.1572 56.1039 8.33114 54.2191 9.16865 52.1014C9.38983 51.5405 9.10585 50.9022 8.52065 50.6841C8.3467 50.622 8.17331 50.6061 7.99881 50.622C6.63946 50.778 5.45406 50.2177 4.58432 49.2827C3.99912 48.6444 3.55675 47.8187 3.30389 46.9315C3.05047 46.0438 2.98767 45.0786 3.16162 44.1596C3.44616 42.6808 4.3787 41.2789 6.13373 40.4378C7.01903 40.017 6.95568 38.7871 6.07038 38.4289C4.71103 37.8219 3.68346 36.7314 3.01935 35.4235C2.41859 34.1935 2.13405 32.7762 2.26076 31.3743C2.37135 29.9889 2.86152 28.6336 3.77849 27.5124C4.74271 26.3445 6.19709 25.4101 8.18887 24.9586C8.90022 24.7872 9.24756 24.0241 8.93135 23.4017C8.33059 22.1872 8.03049 20.7852 8.06216 19.3993C8.0944 18.1534 8.3945 16.9388 8.97914 15.8802C9.54767 14.8524 10.4174 13.9806 11.5717 13.4043C12.5837 12.9061 13.8324 12.6413 15.3185 12.6721C15.9348 12.6874 16.4411 12.2046 16.4567 11.5976C16.4567 11.5355 16.4567 11.4575 16.4411 11.38C16.2988 10.4143 16.4411 9.43316 16.8207 8.54543C17.1213 7.86041 17.5637 7.25284 18.1328 6.7859C18.7013 6.33435 19.3971 6.00749 20.2035 5.88279C21.1838 5.72678 22.3531 5.88279 23.6808 6.44366C24.2499 6.67713 24.914 6.41235 25.1513 5.85203C25.9415 4.15457 27.1747 3.08007 28.4713 2.56589C29.3249 2.2231 30.2102 2.13026 31.0321 2.23903C32.865 2.47195 34.4144 3.70192 34.5722 5.55538ZM35.6159 65.6036C36.3273 67.0049 37.3226 68.0948 38.493 68.8738C39.6623 69.6522 40.9905 70.1197 42.3499 70.2592C43.7092 70.4147 45.1002 70.2438 46.3812 69.7763C48.5781 68.9825 50.4754 67.3005 51.4235 64.7625C53.2574 65.4162 55.0908 65.603 56.8136 65.3855C58.7904 65.1207 60.5927 64.3263 61.9993 63.0958C63.422 61.8499 64.4334 60.153 64.8447 58.1282C65.1603 56.5395 65.097 54.7333 64.544 52.7716C65.9828 52.554 67.2316 51.8053 68.1958 50.7626C69.0177 49.859 69.6341 48.7378 69.982 47.5237C70.3143 46.3245 70.3927 45.0171 70.1559 43.7553C69.8391 42.1518 69.0172 40.6405 67.5789 39.4726C68.6537 38.6475 69.5074 37.5884 70.1081 36.3897C70.8984 34.8011 71.2463 32.9795 71.104 31.204C70.9462 29.3978 70.2976 27.6223 69.0967 26.1429C68.053 24.8663 66.5992 23.8225 64.7024 23.1688C65.1287 21.9542 65.3348 20.6463 65.3032 19.3377C65.2554 17.765 64.8758 16.1922 64.1016 14.8216C63.3264 13.4203 62.141 12.2211 60.5604 11.4426C59.5329 10.9444 58.3314 10.6175 56.972 10.5082C56.9565 9.52655 56.7508 8.56136 56.3557 7.68956C55.9289 6.69306 55.2653 5.78995 54.4111 5.10438C53.5581 4.40397 52.4988 3.90517 51.2812 3.7184C50.1586 3.547 48.9098 3.64039 47.5505 4.06118C46.5074 2.3011 45.0369 1.14914 43.4719 0.526192C42.2709 0.0592541 41.0061 -0.096758 39.8201 0.0592541C38.603 0.214717 37.481 0.697585 36.5796 1.46062C36.2322 1.74078 35.9316 2.08357 35.647 2.45712C34.6511 1.16452 33.0701 0.292723 31.3156 0.0592541C30.1302 -0.096758 28.8653 0.0592541 27.6638 0.526192C26.0988 1.14914 24.6289 2.3011 23.5852 4.06118C22.2258 3.64039 20.9771 3.547 19.8545 3.7184C18.6374 3.90517 17.5782 4.40397 16.709 5.10438C15.8554 5.7894 15.2068 6.69306 14.7644 7.68956C14.3849 8.56136 14.1792 9.5271 14.1637 10.5082C12.7882 10.617 11.6028 10.9438 10.5752 11.4426C8.97858 12.2211 7.80874 13.4203 7.03404 14.8216C6.25933 16.1922 5.87976 17.765 5.83252 19.3377C5.80084 20.6457 6.00647 21.9542 6.43328 23.1688C4.53597 23.8225 3.08215 24.8663 2.03846 26.1429C0.821385 27.6229 0.173388 29.3978 0.0311181 31.204C-0.111152 32.9795 0.236743 34.8011 1.02701 36.3897C1.62777 37.5889 2.48139 38.6475 3.5562 39.4726C2.10182 40.6405 1.27987 42.1518 0.979216 43.7553C0.726353 45.0171 0.805268 46.3251 1.15316 47.5237C1.50106 48.7383 2.11738 49.8595 2.93932 50.7626C3.90354 51.8053 5.15229 52.554 6.59111 52.7716C6.03759 54.7333 5.97479 56.5395 6.29045 58.1282C6.7017 60.153 7.71316 61.8499 9.13586 63.0958C10.543 64.3263 12.3447 65.1207 14.3209 65.3855C16.0282 65.603 17.8777 65.4168 19.7117 64.7625C20.6603 67.3005 22.5571 68.9825 24.7545 69.7763C26.0349 70.2438 27.4259 70.4147 28.7858 70.2592C31.8691 69.9164 34.2877 68.0948 35.6159 65.6036ZM36.8013 5.55538C36.9125 4.49626 37.3543 3.6706 38.0184 3.11028C38.5869 2.64334 39.3149 2.33187 40.1052 2.23848C40.9271 2.12971 41.8124 2.2231 42.65 2.56534C44.1204 3.14159 45.3853 4.43418 45.9855 5.86686C46.2384 6.42773 46.8864 6.67658 47.456 6.44312C48.7842 5.88224 49.9541 5.72678 50.9339 5.88224C51.7402 6.00694 52.436 6.3338 53.0051 6.78535C53.5742 7.25229 54.0171 7.85986 54.3172 8.54488C54.6968 9.43261 54.8385 10.4137 54.6968 11.3795C54.5695 12.0645 55.1075 12.6874 55.8033 12.6721C57.3049 12.6408 58.5537 12.9055 59.5657 13.4043C60.7194 13.9806 61.5891 14.8524 62.1582 15.8802C62.7428 16.9393 63.0435 18.1539 63.0746 19.3993C63.1069 20.7852 62.8062 22.1872 62.1893 23.4017C61.9048 24.1181 62.1738 24.7723 62.9485 24.9586C64.9397 25.4101 66.3946 26.3445 67.3589 27.5124C68.2758 28.6336 68.766 29.9883 68.876 31.3743C68.9866 32.7762 68.7176 34.1929 68.1174 35.4235C67.4533 36.7314 66.4263 37.8219 65.0503 38.4289C64.813 38.5382 64.5918 38.725 64.4812 38.9738C64.2133 39.5188 64.434 40.173 64.9875 40.4378C66.7581 41.2789 67.6751 42.6808 67.9752 44.1596C68.1491 45.0786 68.0852 46.0438 67.8329 46.9315C67.2477 49.0031 65.5249 50.9027 63.1535 50.622H63.138C62.964 50.6066 62.774 50.622 62.6 50.6841C62.0315 50.9022 61.747 51.541 61.9676 52.1014C62.8056 54.2191 62.9796 56.1039 62.6478 57.7074C62.3477 59.2494 61.5725 60.526 60.5138 61.4604C59.4384 62.3949 58.0474 63.0178 56.5302 63.2046C54.8541 63.4221 53.0362 63.1579 51.2184 62.3169C50.586 61.9746 49.7796 62.3322 49.6218 63.0338C49.0682 65.4789 47.4871 67.0362 45.6221 67.7213C44.6584 68.0635 43.6147 68.1887 42.6027 68.0789C41.5913 67.9701 40.6109 67.6279 39.7417 67.0516C38.0345 65.9304 36.8013 63.8435 36.8013 60.8067V5.55538Z" fill="#EC7161"/>
</g>
<defs>
<clipPath id="clip0_2949_673">
<rect width="71.1351" height="70.3153" fill="white"/>
</clipPath>
</defs>
</svg>
