<svg width="70" height="70" viewBox="0 0 70 70" fill="none" xmlns="http://www.w3.org/2000/svg">
<g clip-path="url(#clip0_2949_1947)">
<path d="M45.8661 44.9623C51.5578 39.1017 51.5071 29.9633 45.7486 24.1601C39.9267 18.2941 30.3711 18.21 24.4444 23.9711C21.5705 26.7643 19.9683 30.5 19.9322 34.4881C19.8969 38.4761 21.4309 42.2386 24.2534 45.0831C28.1561 49.0171 33.8237 50.4851 39.1536 48.9717C39.8039 49.4791 41.177 50.3115 43.1738 50.3115C44.2652 50.3115 45.5423 50.0632 46.9896 49.3763C47.2994 49.2301 47.4929 48.9156 47.4889 48.5738C47.4836 48.232 47.2793 47.9236 46.9669 47.7848C46.5817 47.6132 45.4408 46.9583 45.2653 46.218C45.2399 46.1078 45.1625 45.776 45.593 45.2366C45.6852 45.1472 45.776 45.0557 45.8661 44.9623ZM43.5643 46.6252C43.7345 47.3395 44.1898 47.9196 44.6811 48.3615C41.7064 49.0985 40.0736 47.471 39.9995 47.3949C39.8319 47.2167 39.6002 47.1199 39.3626 47.1199C39.2738 47.1199 39.1843 47.1339 39.0969 47.1613C34.2623 48.7007 29.0506 47.4336 25.4958 43.8508C23.0051 41.34 21.6506 38.0209 21.6826 34.5034C21.714 30.9867 23.1279 27.6915 25.6647 25.2255C30.9058 20.1313 39.3579 20.2047 44.5062 25.3917C49.5858 30.512 49.6318 38.5736 44.611 43.7433C44.5223 43.8347 44.4315 43.9262 44.3393 44.015C44.3153 44.0377 44.2933 44.0617 44.2726 44.0864C43.4301 45.1058 43.4221 46.0297 43.5643 46.6252Z" fill="#EC7161"/>
<path d="M40.9546 30.896H29.0432C28.5598 30.896 28.168 31.2872 28.168 31.7712C28.168 32.2545 28.5598 32.6457 29.0432 32.6457H40.9546C41.4386 32.6457 41.8298 32.2545 41.8298 31.7712C41.8298 31.2872 41.4386 30.896 40.9546 30.896Z" fill="#EC7161"/>
<path d="M40.9546 37.2251H29.0432C28.5598 37.2251 28.168 37.6163 28.168 38.1003C28.168 38.5836 28.5598 38.9748 29.0432 38.9748H40.9546C41.4386 38.9748 41.8298 38.5836 41.8298 38.1003C41.8298 37.6163 41.4386 37.2251 40.9546 37.2251Z" fill="#EC7161"/>
<path d="M68.8053 12.5917C68.8053 6.30721 63.6924 1.1936 57.4079 1.1936C51.1227 1.1936 46.0098 6.30721 46.0098 12.5917C46.0098 18.8763 51.1227 23.9899 57.4079 23.9899C63.6924 23.9899 68.8053 18.8763 68.8053 12.5917ZM51.6528 20.3175C51.7589 17.8655 53.3604 15.764 55.7276 15.0457C56.0641 14.9436 56.3077 14.6485 56.3438 14.2974C56.3798 13.9462 56.2009 13.6084 55.8912 13.4402C54.7777 12.8347 54.0861 11.6718 54.0861 10.4054C54.0861 8.50151 55.6355 6.95208 57.5394 6.95208C59.4426 6.95208 60.9921 8.50151 60.9921 10.4054C60.9921 11.7092 60.2678 12.8881 59.1009 13.4816C58.7864 13.6418 58.5995 13.9749 58.6262 14.3274C58.6522 14.6792 58.8886 14.981 59.2237 15.0918C61.5101 15.8495 63.0576 17.931 63.163 20.3169C61.5542 21.5192 59.5655 22.2401 57.4079 22.2401C55.2496 22.2401 53.2616 21.5192 51.6528 20.3175ZM47.7595 12.5917C47.7595 7.27185 52.0873 2.94398 57.4079 2.94398C62.7278 2.94398 67.0556 7.27185 67.0556 12.5917C67.0556 14.9863 66.1738 17.1746 64.7245 18.8629C64.2578 16.8588 62.9988 15.1265 61.2184 14.0838C62.1824 13.1251 62.7425 11.8133 62.7425 10.4054C62.7425 7.53687 60.408 5.20237 57.5394 5.20237C54.6708 5.20237 52.3363 7.53687 52.3363 10.4054C52.3363 11.7579 52.8597 13.0317 53.7616 13.9836C51.8891 15.0117 50.5679 16.7847 50.09 18.8622C48.6413 17.1739 47.7595 14.9856 47.7595 12.5917Z" fill="#EC7161"/>
<path d="M12.5915 1.1936C6.30696 1.1936 1.19336 6.30721 1.19336 12.5917C1.19336 18.8763 6.30696 23.9899 12.5915 23.9899C18.876 23.9899 23.9896 18.8763 23.9896 12.5917C23.9896 6.30721 18.876 1.1936 12.5915 1.1936ZM6.83635 20.3175C6.94316 17.8655 8.54466 15.764 10.9119 15.0457C11.2483 14.9436 11.492 14.6485 11.5274 14.2974C11.5634 13.9462 11.3852 13.6084 11.0748 13.4402C9.96125 12.8347 9.27031 11.6718 9.27031 10.4054C9.27031 8.50151 10.8191 6.95208 12.723 6.95208C14.6269 6.95208 16.1763 8.50151 16.1763 10.4054C16.1763 11.7092 15.4514 12.8875 14.2844 13.4816C13.97 13.6418 13.7824 13.9749 13.8091 14.3274C13.8358 14.6792 14.0715 14.981 14.4066 15.0918C16.693 15.8495 18.2411 17.931 18.3466 20.3169C16.7378 21.5192 14.7497 22.2401 12.5915 22.2401C10.4332 22.2401 8.44519 21.5192 6.83635 20.3175ZM19.9087 18.8629C19.4414 16.8588 18.1817 15.1265 16.402 14.0838C17.3653 13.1251 17.9261 11.8133 17.9261 10.4054C17.9261 7.53687 15.5916 5.20237 12.723 5.20237C9.85444 5.20237 7.51994 7.53687 7.51994 10.4054C7.51994 11.7579 8.04398 13.0317 8.94521 13.9836C7.07267 15.0117 5.75221 16.7847 5.27356 18.8622C3.82493 17.1739 2.94373 14.9856 2.94373 12.5917C2.94373 7.27185 7.2716 2.94398 12.5915 2.94398C17.9114 2.94398 22.2399 7.27185 22.2399 12.5917C22.2399 14.9863 21.358 17.1746 19.9087 18.8629Z" fill="#EC7161"/>
<path d="M57.4079 46.1025C51.1227 46.1025 46.0098 51.2155 46.0098 57.5007C46.0098 63.7852 51.1227 68.8988 57.4079 68.8988C63.6924 68.8988 68.8053 63.7852 68.8053 57.5007C68.8053 51.2155 63.6924 46.1025 57.4079 46.1025ZM51.6528 65.2258C51.7589 62.7745 53.3604 60.673 55.7276 59.9547C56.0641 59.8519 56.3077 59.5575 56.3438 59.2063C56.3798 58.8552 56.2009 58.5174 55.8912 58.3491C54.7777 57.743 54.0861 56.5801 54.0861 55.3137C54.0861 53.4098 55.6355 51.861 57.5394 51.861C59.4426 51.861 60.9921 53.4098 60.9921 55.3137C60.9921 56.6181 60.2678 57.7971 59.1009 58.3899C58.7864 58.5508 58.5995 58.8839 58.6262 59.2357C58.6522 59.5882 58.8886 59.8899 59.2237 60.0007C61.5101 60.7577 63.0576 62.8399 63.163 65.2258C61.5542 66.4274 59.5655 67.1484 57.4079 67.1484C55.2496 67.1484 53.2616 66.4274 51.6528 65.2258ZM64.7245 63.7718C64.2578 61.7678 62.9988 60.0354 61.2184 58.9927C62.1824 58.0334 62.7425 56.7223 62.7425 55.3137C62.7425 52.4451 60.408 50.1106 57.5394 50.1106C54.6708 50.1106 52.3363 52.4451 52.3363 55.3137C52.3363 56.6662 52.8597 57.9406 53.7616 58.8926C51.8891 59.9206 50.5679 61.6937 50.09 63.7712C48.6413 62.0829 47.7595 59.8946 47.7595 57.5007C47.7595 52.1801 52.0873 47.8522 57.4079 47.8522C62.7278 47.8522 67.0556 52.1801 67.0556 57.5007C67.0556 59.8946 66.1738 62.0835 64.7245 63.7718Z" fill="#EC7161"/>
<path d="M12.5915 46.1025C6.30696 46.1025 1.19336 51.2155 1.19336 57.5007C1.19336 63.7852 6.30696 68.8988 12.5915 68.8988C18.876 68.8988 23.9896 63.7852 23.9896 57.5007C23.9896 51.2155 18.876 46.1025 12.5915 46.1025ZM6.83635 65.2258C6.94316 62.7745 8.54466 60.673 10.9119 59.9547C11.2483 59.8519 11.492 59.5575 11.5274 59.2063C11.5634 58.8552 11.3852 58.5174 11.0748 58.3491C9.96125 57.743 9.27031 56.5801 9.27031 55.3137C9.27031 53.4098 10.8191 51.861 12.723 51.861C14.6269 51.861 16.1763 53.4098 16.1763 55.3137C16.1763 56.6181 15.4514 57.7964 14.2844 58.3899C13.97 58.5508 13.7824 58.8839 13.8091 59.2357C13.8358 59.5882 14.0715 59.8899 14.4066 60.0007C16.693 60.7577 18.2411 62.8399 18.3466 65.2258C16.7378 66.4274 14.7497 67.1484 12.5915 67.1484C10.4332 67.1484 8.44519 66.4274 6.83635 65.2258ZM19.9087 63.7718C19.4414 61.7678 18.1817 60.0354 16.402 58.9927C17.3653 58.0334 17.9261 56.7223 17.9261 55.3137C17.9261 52.4451 15.5916 50.1106 12.723 50.1106C9.85444 50.1106 7.51994 52.4451 7.51994 55.3137C7.51994 56.6662 8.04398 57.9406 8.94521 58.8926C7.07267 59.9206 5.75221 61.6937 5.27356 63.7712C3.82493 62.0829 2.94373 59.8946 2.94373 57.5007C2.94373 52.1801 7.2716 47.8522 12.5915 47.8522C17.9114 47.8522 22.2399 52.1801 22.2399 57.5007C22.2399 59.8946 21.358 62.0835 19.9087 63.7718Z" fill="#EC7161"/>
<path d="M24.8388 0.0600814C24.3902 -0.110817 23.8815 0.112152 23.7093 0.564098L22.5858 3.49808C22.4122 3.94936 22.6385 4.45538 23.0898 4.62761L26.0231 5.7518C26.1259 5.79119 26.2314 5.80988 26.3362 5.80988C26.688 5.80988 27.0198 5.59626 27.1526 5.24712C27.3262 4.7965 27.0999 4.29048 26.6486 4.11758L25.7374 3.76844C28.6547 2.43463 31.7656 1.74971 35.0006 1.74971C38.4593 1.74971 41.7798 2.52275 44.87 4.04682C44.9948 4.10824 45.1263 4.13761 45.2559 4.13761C45.579 4.13761 45.8894 3.9587 46.0416 3.64962C46.2559 3.21636 46.077 2.69165 45.6437 2.47803C42.3112 0.833797 38.7303 0 35.0006 0C31.4912 0 28.1173 0.747681 24.9543 2.20366L25.3428 1.18961C25.5164 0.738335 25.2901 0.232315 24.8388 0.0600814Z" fill="#EC7161"/>
<path d="M3.84455 47.4516C4.19636 47.4516 4.52814 47.238 4.66099 46.8895L5.78518 43.9556C5.95808 43.505 5.73177 42.9989 5.28049 42.826C4.83189 42.6538 4.32386 42.8781 4.15096 43.3307L3.78246 44.2927C2.43931 41.3667 1.74971 38.2458 1.74971 35.0001C1.74971 31.5407 2.52275 28.2202 4.04682 25.1307C4.26111 24.6975 4.08287 24.1727 3.64962 23.9591C3.21569 23.7455 2.69165 23.9231 2.47803 24.3563C0.833797 27.6888 0 31.2704 0 35.0001C0 38.4935 0.741005 41.8541 2.18496 45.005L1.22299 44.6372C0.774384 44.4663 0.265694 44.6892 0.0934601 45.1412C-0.0794411 45.5925 0.146198 46.0978 0.597477 46.2707L3.53146 47.3936C3.63426 47.433 3.74041 47.4516 3.84455 47.4516Z" fill="#EC7161"/>
<path d="M46.9244 65.3173L43.9897 64.1937C43.5411 64.0208 43.0331 64.2458 42.8602 64.6978C42.6866 65.149 42.9136 65.6551 43.3642 65.8273L44.3342 66.1991C41.3969 67.555 38.2613 68.2499 35.0009 68.2499C31.5415 68.2499 28.221 67.4775 25.1315 65.9535C24.6976 65.7398 24.1735 65.9174 23.9599 66.3507C23.7456 66.7839 23.9238 67.3086 24.3571 67.5223C27.6896 69.1658 31.2711 70.0003 35.0009 70.0003C38.5063 70.0003 41.8775 69.2539 45.0372 67.8006L44.6713 68.7559C44.4978 69.2072 44.7241 69.7132 45.1753 69.8855C45.2775 69.9248 45.3836 69.9435 45.4878 69.9435C45.8402 69.9435 46.1714 69.7299 46.3049 69.3814L47.4284 66.4468C47.602 65.9962 47.3757 65.4902 46.9244 65.3173Z" fill="#EC7161"/>
<path d="M68.7898 25.3084C69.2384 25.4813 69.7464 25.2564 69.9193 24.8044C70.0922 24.3531 69.8666 23.8471 69.4153 23.6749L66.4807 22.552C66.0334 22.3798 65.5247 22.6048 65.3511 23.056L64.2283 25.9894C64.0547 26.4406 64.2817 26.9467 64.7323 27.1189C64.8351 27.1583 64.9412 27.177 65.0454 27.177C65.3972 27.177 65.729 26.9633 65.8625 26.6149L66.2136 25.697C67.5601 28.6256 68.2504 31.7505 68.2504 35.0002C68.2504 38.4589 67.478 41.7794 65.9539 44.8696C65.739 45.3029 65.9179 45.8276 66.3512 46.0412C66.476 46.1026 66.6075 46.1313 66.737 46.1313C67.0601 46.1313 67.3705 45.9531 67.5227 45.6433C69.1663 42.3108 70.0008 38.73 70.0008 35.0002C70.0008 31.4795 69.2484 28.0942 67.7824 24.9232L68.7898 25.3084Z" fill="#EC7161"/>
</g>
<defs>
<clipPath id="clip0_2949_1947">
<rect width="70" height="70" fill="white"/>
</clipPath>
</defs>
</svg>
