<svg width="72" height="71" viewBox="0 0 72 71" fill="none" xmlns="http://www.w3.org/2000/svg">
<g clip-path="url(#clip0_2949_904)">
<path d="M64.9891 12.0991C64.7293 11.8422 64.3722 11.6965 64.0067 11.6965C63.6399 11.6965 63.2828 11.8422 63.0229 12.0991C62.7646 12.3544 62.6172 12.7075 62.6172 13.07C62.6172 13.4312 62.7646 13.7857 63.0229 14.0411C63.2827 14.2966 63.6398 14.4435 64.0067 14.4435C64.3721 14.4435 64.7293 14.2967 64.9891 14.0411C65.2475 13.7857 65.3948 13.4313 65.3948 13.07C65.3948 12.7075 65.2475 12.3544 64.9891 12.0991Z" fill="#EC7161"/>
<path d="M33.077 44.445C32.8173 44.1882 32.4601 44.0425 32.0946 44.0425C31.7278 44.0425 31.3706 44.1882 31.1108 44.445C30.8525 44.7003 30.7051 45.0534 30.7051 45.416C30.7051 45.7772 30.8525 46.1315 31.1108 46.3871C31.3706 46.6425 31.7276 46.7894 32.0946 46.7894C32.46 46.7894 32.8172 46.6426 33.077 46.3871C33.3354 46.1316 33.4827 45.7773 33.4827 45.416C33.4828 45.0534 33.3355 44.7003 33.077 44.445Z" fill="#EC7161"/>
<path d="M68.3541 16.6604C67.9748 16.0009 67.1261 15.7705 66.4594 16.1454C65.7924 16.5203 65.5591 17.3589 65.9385 18.0182C70.0657 25.1923 68.8198 34.2839 62.9083 40.127L61.8548 41.1685C61.6002 40.5083 61.2059 39.889 60.6687 39.3581L46.3922 25.2463C47.3258 24.7923 48.1885 24.1865 48.9458 23.4379L51.684 20.7311C52.2265 20.1948 52.2265 19.3251 51.684 18.7888C51.1413 18.2525 50.2617 18.2525 49.7189 18.7888L46.9807 21.4955C45.6943 22.767 43.9842 23.4673 42.1651 23.4673H36.6914C36.323 23.4673 35.9696 23.612 35.7089 23.8695L31.5186 28.0115C30.2742 29.2416 28.2495 29.2416 27.0052 28.0115C25.7608 26.7816 25.7608 24.7802 27.0052 23.5502L36.5718 14.094C42.4181 8.31499 51.5452 7.0441 58.7664 11.0035C59.4374 11.3711 60.2833 11.132 60.6555 10.4685C61.0277 9.80521 60.7854 8.96912 60.1143 8.6012C56.1313 6.41771 51.4386 5.54385 46.8999 6.1414C42.6523 6.70049 38.7645 8.45851 35.5776 11.248C31.6625 7.81729 26.6785 5.94116 21.4017 5.94116C15.685 5.94116 10.3107 8.14167 6.26837 12.1373C2.22603 16.1329 0 21.4457 0 27.0963C0 32.7471 2.22617 38.0595 6.26837 42.0552L6.79202 42.5728C6.88316 42.6628 6.9843 42.7364 7.09114 42.7961C7.18409 43.9844 7.68773 45.1468 8.60513 46.0534C9.62617 47.0626 10.9666 47.5669 12.3075 47.5669C12.3771 47.5669 12.4468 47.5647 12.5164 47.5619C12.5137 47.6314 12.5113 47.7009 12.5113 47.7708C12.5113 49.1532 13.0559 50.453 14.0449 51.4305C15.0659 52.4396 16.4064 52.9441 17.7472 52.9439C17.8168 52.9439 17.8866 52.9417 17.9562 52.939C17.9534 53.0085 17.9511 53.078 17.9511 53.1479C17.9511 54.5303 18.4957 55.83 19.4848 56.8076C20.5057 57.8166 21.8464 58.321 23.1871 58.321C23.2576 58.321 23.328 58.3188 23.3985 58.316C23.342 59.7101 23.8501 61.1228 24.9245 62.1849C25.9136 63.1625 27.2285 63.7008 28.6269 63.7008C30.0256 63.7008 31.3404 63.1625 32.3293 62.1849L34.2712 60.2652L36.8941 62.8577C37.8831 63.8354 39.198 64.3737 40.5965 64.3737C41.995 64.3737 43.3099 63.8354 44.2988 62.8578C45.3862 61.7831 45.8941 60.3491 45.8233 58.9387C45.9105 58.943 45.998 58.9455 46.0854 58.9455C47.4263 58.9455 48.7673 58.441 49.7881 57.4319C50.8619 56.3704 51.37 54.9589 51.3141 53.5655C51.3844 53.5683 51.4547 53.5706 51.5255 53.5706C52.924 53.5706 54.2389 53.0322 55.2278 52.0547C56.3017 50.9932 56.8097 49.5817 56.7539 48.1883C56.8242 48.1911 56.8945 48.1934 56.9652 48.1934C58.3637 48.1934 59.6786 47.655 60.6676 46.6775C61.1698 46.181 61.548 45.6075 61.8031 44.9954C61.9383 44.9303 62.0654 44.8437 62.1778 44.7327L64.8723 42.0692C71.6664 35.3548 73.0977 24.9061 68.3541 16.6604ZM12.3076 44.8224C11.6513 44.8224 11.0343 44.5698 10.5701 44.111C10.1061 43.6523 9.85041 43.0424 9.85041 42.3936C9.85041 41.745 10.1059 41.1349 10.5701 40.6762L12.9645 38.3094C13.4286 37.8506 14.0457 37.598 14.702 37.598C15.3582 37.598 15.9754 37.8506 16.4394 38.3094C17.3975 39.2565 17.3975 40.7972 16.4394 41.7442L14.045 44.1111C13.581 44.5697 12.9641 44.8224 12.3076 44.8224ZM16.0103 49.4883C15.5461 49.0296 15.2906 48.4196 15.2906 47.7709C15.2906 47.1222 15.5461 46.5123 16.0103 46.0536L18.4048 43.6866C18.4048 43.6866 18.4048 43.6866 18.4048 43.6865C18.8689 43.2278 19.4859 42.9751 20.1422 42.9751C20.7984 42.9751 21.4156 43.2276 21.8796 43.6865C22.8377 44.6335 22.8377 46.1743 21.8796 47.1212L19.4852 49.4882C18.527 50.4351 16.9678 50.4351 16.0103 49.4883ZM21.45 54.8654C20.9858 54.4067 20.7303 53.7966 20.7303 53.148C20.7303 52.4992 20.9858 51.8893 21.45 51.4306L23.8446 49.0637C24.3086 48.605 24.9256 48.3521 25.582 48.3521C26.2383 48.3521 26.8553 48.6047 27.3194 49.0635C28.2775 50.0107 28.2775 51.5515 27.3194 52.4984L24.9248 54.8654C23.9668 55.8124 22.4081 55.8124 21.45 54.8654ZM32.7593 57.8758L30.3647 60.2428C29.9007 60.7015 29.2836 60.9542 28.6273 60.9542C27.9711 60.9542 27.354 60.7017 26.8899 60.2428C25.9318 59.2957 25.9318 57.7549 26.8899 56.808L29.2845 54.441C29.7485 53.9823 30.3655 53.7295 31.0219 53.7295C31.6781 53.7295 32.2952 53.982 32.7593 54.4409C33.2234 54.8996 33.4789 55.5096 33.4789 56.1582C33.4791 56.8073 33.2234 57.4171 32.7593 57.8758ZM58.7036 44.7352C58.2395 45.194 57.6224 45.4466 56.9662 45.4466C56.3098 45.4466 55.6928 45.194 55.2288 44.7352L49.4453 39.0183C49.445 39.0181 49.4449 39.0179 49.4446 39.0177L44.0053 33.641C43.4626 33.1047 42.583 33.1047 42.0402 33.641C41.4976 34.1773 41.4976 35.047 42.0402 35.5833L53.2637 46.6772C54.2218 47.6244 54.2218 49.1652 53.2637 50.1121C52.7996 50.5709 52.1825 50.8235 51.5263 50.8235C50.87 50.8235 50.2529 50.5709 49.7889 50.1121L38.5654 39.0181C38.0227 38.4819 37.1431 38.4819 36.6003 39.0181C36.0577 39.5544 36.0577 40.4241 36.6003 40.9605L42.0391 46.3365C42.0395 46.3369 42.0399 46.3374 42.0403 46.3379L47.8239 52.0545C48.782 53.0017 48.782 54.5426 47.8241 55.4896C46.8658 56.4366 45.3068 56.4366 44.3491 55.4896L38.5655 49.7726C38.4585 49.667 38.3384 49.5829 38.2104 49.5189L36.5608 47.8884C36.0181 47.3522 35.1385 47.3522 34.5957 47.8884C34.0532 48.4247 34.0532 49.2944 34.5957 49.8308L42.3347 57.4804C43.2928 58.4276 43.2928 59.9683 42.3347 60.9152C41.8707 61.3741 41.2535 61.6266 40.5973 61.6266C39.941 61.6266 39.324 61.3741 38.8599 60.9152L35.915 58.0044C36.1394 57.4226 36.2581 56.7995 36.2581 56.1581C36.2581 54.7757 35.7134 53.476 34.7245 52.4984C33.7354 51.5209 32.4205 50.9825 31.0221 50.9825C30.9514 50.9825 30.8811 50.9849 30.8108 50.9876C30.8665 49.5942 30.3586 48.1827 29.2848 47.1212C28.2957 46.1437 26.9808 45.6053 25.5824 45.6053C25.5117 45.6053 25.4414 45.6077 25.3711 45.6104C25.4269 44.217 24.9188 42.8055 23.845 41.744C22.8559 40.7665 21.541 40.2281 20.1426 40.2281C20.0719 40.2281 20.0016 40.2305 19.9313 40.2332C19.9872 38.8398 19.4791 37.4283 18.4052 36.3668C16.3637 34.3488 13.0416 34.349 11.0001 36.3668L8.60568 38.7336C8.30364 39.0322 8.04758 39.3589 7.83473 39.7047C4.57099 36.2781 2.77955 31.8234 2.77955 27.096C2.77955 22.1791 4.71659 17.5562 8.23417 14.0795C11.7515 10.6027 16.4283 8.68785 21.4025 8.68785C25.9229 8.68785 30.1974 10.2694 33.5794 13.1674L25.0408 21.6076C23.9132 22.7224 23.2922 24.2043 23.2922 25.7807C23.2922 27.3571 23.9132 28.8391 25.0408 29.9538C26.2048 31.1043 27.7338 31.6796 29.2627 31.6796C30.7915 31.6796 32.3205 31.1044 33.4845 29.9538L37.268 26.2139H42.1659C42.5703 26.2139 42.9703 26.1866 43.3655 26.1381L58.7044 41.3C59.6615 42.2475 59.6615 43.7884 58.7036 44.7352Z" fill="#EC7161"/>
</g>
<defs>
<clipPath id="clip0_2949_904">
<rect width="71.1351" height="70.3153" fill="white"/>
</clipPath>
</defs>
</svg>
