<svg width="70" height="70" viewBox="0 0 70 70" fill="none" xmlns="http://www.w3.org/2000/svg">
<g clip-path="url(#clip0_2949_37)">
<path d="M66.3348 4.68757C65.5027 4.60314 64.6645 4.77491 63.9327 5.1799C63.5754 4.02071 62.7158 3.08357 61.5918 2.62762C60.4677 2.17166 59.1982 2.2452 58.1343 2.8279C57.542 0.993744 55.7478 -0.176454 53.8305 0.0208999C52.5829 0.162724 51.4718 0.875601 50.8228 1.95057C49.8529 1.23254 48.6109 0.990144 47.4421 1.29077C46.2734 1.59139 45.3025 2.40298 44.7993 3.4999H33.31C33.0971 3.49832 32.8887 3.43905 32.7068 3.3284L27.99 0.506233C27.4477 0.178513 26.8269 0.00355841 26.1933 -0.000100083H8.91617C6.78124 -0.0287007 4.96325 1.54606 4.68701 3.66323C4.60271 4.49578 4.77447 5.33423 5.17934 6.06657C4.01982 6.42342 3.08236 7.28299 2.62653 8.4073C2.17071 9.5316 2.24487 10.8013 2.82851 11.8649C0.99151 12.4551 -0.180345 14.2521 0.0203383 16.1711C0.161645 17.4189 0.874656 18.5302 1.95001 19.1787C1.35796 19.9953 1.08644 21.0008 1.187 22.0044C1.35369 23.3993 2.22769 24.6098 3.49934 25.2069V36.6916C3.4973 36.9034 3.43761 37.1107 3.32667 37.2912L0.480005 42.0326C0.170198 42.573 0.0046692 43.1841 -0.000661675 43.8071V61.0842C-0.0275359 63.2187 1.54718 65.0356 3.66384 65.3122C4.4959 65.3943 5.33333 65.2227 6.066 64.8199C6.42315 65.9795 7.28295 66.9169 8.40742 67.3727C9.53189 67.8285 10.8017 67.7544 11.8655 67.1707C12.406 68.8588 13.9768 70.003 15.7493 69.9999C17.1558 70.0002 18.4583 69.2594 19.177 68.0504C20.1479 68.7684 21.3906 69.0106 22.5601 68.7098C23.7296 68.409 24.7012 67.5972 25.2052 66.4999H36.6887C36.9015 66.5015 37.11 66.5607 37.2918 66.6714L42.0087 69.4959C42.5513 69.8224 43.1721 69.9961 43.8053 69.9987H61.0825C63.2174 70.0273 65.0354 68.4526 65.3117 66.3354C65.3957 65.5032 65.224 64.6652 64.8193 63.9332C65.9789 63.5764 66.9163 62.7168 67.3721 61.5925C67.828 60.4682 67.7538 59.1985 67.1702 58.1349C69.0062 57.5449 70.1779 55.7492 69.9783 53.8311C69.837 52.5833 69.124 51.4719 68.0487 50.8234C68.6407 50.0069 68.9122 49.0013 68.8117 47.9977C68.6437 46.6044 67.7698 45.396 66.4993 44.7999V33.3082C66.5018 33.0959 66.561 32.888 66.6708 32.7062L69.4965 27.9906C69.823 27.4475 69.9967 26.8264 69.9993 26.1927V8.91557C70.0262 6.78107 68.4515 4.96421 66.3348 4.68757ZM2.34201 15.9401C2.28795 15.4456 2.44687 14.9515 2.77905 14.5812C3.11122 14.211 3.58526 13.9996 4.08267 13.9999H11.666C12.3103 13.9999 12.8327 13.4776 12.8327 12.8332C12.8327 12.1889 12.3103 11.6666 11.666 11.6666H6.41601C5.91866 11.6677 5.44431 11.4573 5.11148 11.0877C4.77865 10.7181 4.61879 10.2244 4.67184 9.7299C4.82113 8.8001 5.64189 8.12866 6.58284 8.16657H13.9993C14.6437 8.16657 15.166 7.64423 15.166 6.9999C15.166 6.35557 14.6437 5.83323 13.9993 5.83323H8.74934C8.252 5.83441 7.77764 5.62392 7.44481 5.25436C7.11198 4.8848 6.95212 4.39107 7.00517 3.89657C7.15398 2.96649 7.97505 2.2948 8.91617 2.33323H26.1933C26.406 2.33485 26.6142 2.39455 26.7953 2.5059L31.5133 5.33157C32.0563 5.65712 32.6769 5.83041 33.31 5.83323H44.3327V16.2037L42.312 14.5494C40.7957 13.392 38.6628 13.5093 37.2825 14.8259C36.2576 15.8199 35.9014 17.3176 36.369 18.6666H32.4572C31.539 18.6704 30.6591 19.035 30.0072 19.6816L19.0277 30.5712L19.0043 30.5946L18.519 31.0752C17.9499 31.6316 17.0387 31.6254 16.4773 31.0612C15.9649 30.5468 15.9149 29.7316 16.3607 29.1584L19.569 25.2384C19.8543 24.8895 19.9131 24.4075 19.7201 24.0002C19.527 23.593 19.1167 23.3333 18.666 23.3332H5.41617C4.47674 23.3699 3.65786 22.6993 3.50867 21.7711C3.45533 21.277 3.61458 20.7835 3.94667 20.4138C4.27876 20.0441 4.75238 19.833 5.24934 19.8332H11.666C12.3103 19.8332 12.8327 19.3109 12.8327 18.6666C12.8327 18.0222 12.3103 17.4999 11.666 17.4999H4.24951C3.31101 17.5362 2.49273 16.8671 2.34201 15.9401ZM48.9993 38.0997L38.3477 48.6627C38.1334 48.8769 37.8432 48.9976 37.5403 48.9987H31.8983L21.3365 38.3517C21.1218 38.1373 21.0006 37.8467 20.9993 37.5432V31.8966L31.6475 21.3371C31.8621 21.1219 32.1533 21.0007 32.4572 20.9999H38.1038L48.6657 31.6469C48.8788 31.8626 48.9986 32.1534 48.9993 32.4566V38.0997ZM21.76 66.4906C21.2688 66.5436 20.7784 66.3839 20.4125 66.0519C20.0449 65.7186 19.8345 65.2461 19.8327 64.7499V64.7324V58.3332C19.8327 57.6889 19.3103 57.1666 18.666 57.1666C18.0217 57.1666 17.4993 57.6889 17.4993 58.3332V64.7499V64.7662V65.7521C17.5314 66.6948 16.8551 67.5133 15.9232 67.6596C15.433 67.7129 14.9435 67.5532 14.5792 67.2209C14.2108 66.8872 14.0002 66.4136 13.9993 65.9166V63.5832V63.5599V58.3332C13.9993 57.6889 13.477 57.1666 12.8327 57.1666C12.1883 57.1666 11.666 57.6889 11.666 58.3332V63.5832V63.5972C11.6629 64.0919 11.4505 64.5622 11.0815 64.8917C10.7125 65.2211 10.2212 65.379 9.72934 65.3262C8.79972 65.1775 8.12817 64.3571 8.16601 63.4164V61.2499V61.2324V55.9999C8.16601 55.3556 7.64367 54.8332 6.99934 54.8332C6.35501 54.8332 5.83267 55.3556 5.83267 55.9999V61.2499V61.2604C5.83051 61.7555 5.61875 62.2265 5.24986 62.5567C4.88096 62.8869 4.38947 63.0454 3.89717 62.9929C2.96783 62.8442 2.29606 62.0247 2.33267 61.0842V43.8071C2.33447 43.5969 2.38946 43.3906 2.49251 43.2074L5.33101 38.4871C5.65587 37.9442 5.82912 37.3242 5.83267 36.6916V25.6666H16.202L14.5465 27.6884C13.4792 28.9866 13.4033 30.8355 14.3606 32.2168C15.3179 33.5981 17.0757 34.1762 18.666 33.6326V37.5432C18.6699 38.4614 19.0344 39.3413 19.681 39.9932L30.5613 50.9599C30.5742 50.9739 30.587 50.9867 30.601 50.9996L31.0758 51.4779C31.4846 51.894 31.6035 52.5149 31.3774 53.0526C31.1512 53.5903 30.6243 53.9396 30.041 53.9384C29.7235 53.9398 29.415 53.8333 29.166 53.6362L25.2472 50.4291C24.8983 50.1377 24.4121 50.0755 24.0011 50.2696C23.5901 50.4637 23.3293 50.8787 23.3327 51.3332V64.5831C23.365 65.5247 22.6905 66.3427 21.76 66.4906ZM67.6567 54.0597C67.7107 54.5542 67.5518 55.0483 67.2196 55.4185C66.8875 55.7888 66.4134 56.0002 65.916 55.9999H58.3327C57.6883 55.9999 57.166 56.5222 57.166 57.1666C57.166 57.8109 57.6883 58.3332 58.3327 58.3332H63.5827C64.08 58.3321 64.5544 58.5425 64.8872 58.9121C65.22 59.2817 65.3799 59.7754 65.3268 60.2699C65.1775 61.1997 64.3568 61.8711 63.4158 61.8332H55.9993C55.355 61.8332 54.8327 62.3556 54.8327 62.9999C54.8327 63.6442 55.355 64.1666 55.9993 64.1666H61.2493C61.7467 64.1654 62.221 64.3759 62.5539 64.7454C62.8867 65.115 63.0466 65.6087 62.9935 66.1032C62.8447 67.0333 62.0236 67.705 61.0825 67.6666H43.8053C43.5927 67.6649 43.3845 67.6052 43.2033 67.4939L38.4853 64.6682C37.9424 64.3427 37.3218 64.1694 36.6887 64.1666H25.666V53.7937L27.6867 55.4481C29.2016 56.6099 31.3377 56.4925 32.7162 55.1716C33.7414 54.1788 34.099 52.6822 33.6332 51.3332H37.5415C38.4597 51.3294 39.3396 50.9648 39.9915 50.3182L50.9675 39.4332L51.0083 39.3936L51.4832 38.9269C52.0523 38.3705 52.9634 38.3768 53.5248 38.9409C54.0373 39.4553 54.0872 40.2705 53.6415 40.8437L50.4332 44.7637C50.1497 45.1122 50.0915 45.5924 50.2835 45.9985C50.4755 46.4046 50.8835 46.6644 51.3327 46.6666H64.5825C65.5219 46.6299 66.3408 47.3005 66.49 48.2287C66.5434 48.7228 66.3841 49.2163 66.052 49.586C65.7199 49.9557 65.2463 50.1668 64.7493 50.1666H58.3327C57.6883 50.1666 57.166 50.6889 57.166 51.3332C57.166 51.9776 57.6883 52.4999 58.3327 52.4999H65.7527C66.6899 52.4654 67.5061 53.1341 67.6567 54.0597ZM67.666 26.1927C67.6642 26.4052 67.605 26.6132 67.4945 26.7947L64.6677 31.5127C64.3423 32.0553 64.169 32.6755 64.166 33.3082V44.3332H53.7932L55.4487 42.3114C56.6504 40.8095 56.5303 38.6441 55.1698 37.2842C54.1507 36.3063 52.677 35.9667 51.3327 36.3999V32.4566C51.3288 31.5384 50.9643 30.6585 50.3177 30.0066L39.4327 19.0236L39.4105 19.0014L38.9287 18.5161C38.6553 18.2461 38.5027 17.8771 38.5053 17.4929C38.5079 17.1087 38.6657 16.7418 38.9427 16.4756C39.4642 15.978 40.2683 15.9288 40.8467 16.3589L44.7655 19.5661C45.114 19.8481 45.5933 19.9054 45.9985 19.7136C46.4037 19.5218 46.6631 19.1149 46.666 18.6666V5.41673C46.6299 4.4771 47.3009 3.65838 48.2293 3.50923C48.7232 3.45625 49.2164 3.61565 49.5858 3.9477C49.9553 4.27976 50.1662 4.75317 50.166 5.2499V11.6666C50.166 12.3109 50.6883 12.8332 51.3327 12.8332C51.977 12.8332 52.4993 12.3109 52.4993 11.6666V4.25007C52.4627 3.31025 53.134 2.49123 54.0627 2.34257C54.5566 2.28958 55.0497 2.44899 55.4192 2.78104C55.7886 3.11309 55.9995 3.5865 55.9993 4.08323V11.6666C55.9993 12.3109 56.5217 12.8332 57.166 12.8332C57.8103 12.8332 58.3327 12.3109 58.3327 11.6666V6.41657C58.3318 5.91943 58.5425 5.44539 58.912 5.11282C59.2815 4.78025 59.775 4.62054 60.2693 4.67357C61.199 4.82233 61.8705 5.64271 61.8327 6.5834V13.9999C61.8327 14.6442 62.355 15.1666 62.9993 15.1666C63.6437 15.1666 64.166 14.6442 64.166 13.9999V8.7499C64.1652 8.25276 64.3758 7.77872 64.7453 7.44615C65.1148 7.11358 65.6084 6.95387 66.1027 7.0069C67.0316 7.1561 67.7027 7.9755 67.666 8.91557V26.1927Z" fill="#EC7161"/>
</g>
<defs>
<clipPath id="clip0_2949_37">
<rect width="70" height="70" fill="white"/>
</clipPath>
</defs>
</svg>
